# xmcd
#
# Track frame offsets:
#	150
#	12447
#	26382
#	37755
#	41780
#	48147
#	54161
#	63235
#	68755
#	76425
#	88043
#	99931
#	112942
#	123385
#	132633
#	144124
#	149876
#	158942
#	167295
#	179109
#	188582
#	199344
#	208111
#	221853
#	226588
#	231124
#	236420
#	239895
#	243346
#	246017
#	249463
#
# Disc length: 3382 seconds
#
# Revision: 1
# Processed by: cddbd v1.5.2PL0 Copyright (c) Steve Scherf et al.
# Submitted via: audiograbber 1.83.01
#
DISCID=ae0d341f
DTITLE=ORQ. FERVENDO FREVO - AO VIVO
DYEAR=1900
DGENRE=
TTITLE0=CABELO DE FOGO
TTITLE1=MARCHA DO GAGUINHO
TTITLE2=NINO PERNAMBUCANO
TTITLE3=QUEM SABE, SABE
TTITLE4=TA HI
TTITLE5=SACA ROLHA
TTITLE6=MARCHA DO VESTIBULAR
TTITLE7=RESSACA
TTITLE8=FREVO DO PINDUCA
TTITLE9=BALANÇA O SACO
TTITLE10=PASSO DE ANJO
TTITLE11=FESTA DO INTERIOR
TTITLE12=PEGANDO FOGO
TTITLE13=ONDE ESTA O DINHEIRO
TTITLE14=CIDADE MARAVILHOSA
TTITLE15=BANDEIRA BRANCA
TTITLE16=AS PASTORINHAS
TTITLE17=LATA D'AGUA
TTITLE18=TREM DAS ONZE
TTITLE19=BARRACÃO
TTITLE20=VOU FESTEJAR
TTITLE21=ESTA CHEGANDO A HORA
TTITLE22=VASSOURINHA
TTITLE23=BARRIL DE CHOPP
TTITLE24=FOGÃO
TTITLE25=ZÉ PEREIRA
TTITLE26=O TEU CABELO NÃO NEGA
TTITLE27=MARCHA DA CUECA
TTITLE28=MULATA IE, IE
TTITLE29=GELINHO
TTITLE30=MARCHA DO REMADOR
EXTD=
EXTT0=
EXTT1=
EXTT2=
EXTT3=
EXTT4=
EXTT5=
EXTT6=
EXTT7=
EXTT8=
EXTT9=
EXTT10=
EXTT11=
EXTT12=
EXTT13=
EXTT14=
EXTT15=
EXTT16=
EXTT17=
EXTT18=
EXTT19=
EXTT20=
EXTT21=
EXTT22=
EXTT23=
EXTT24=
EXTT25=
EXTT26=
EXTT27=
EXTT28=
EXTT29=
EXTT30=
PLAYORDER=
